<?xml version="1.0" standalone="no"?>
<!DOCTYPE svg PUBLIC "-//W3C//DTD SVG 20010904//EN"
 "http://www.w3.org/TR/2001/REC-SVG-20010904/DTD/svg10.dtd">
<svg version="1.0" xmlns="http://www.w3.org/2000/svg"
 width="128.000000pt" height="128.000000pt" viewBox="0 0 128.000000 128.000000"
 preserveAspectRatio="xMidYMid meet">

<g transform="translate(0.000000,128.000000) scale(0.100000,-0.100000)"
fill="#000000" stroke="none">
<path d="M51 1156 c-50 -28 -50 -29 -51 -513 0 -486 1 -492 51 -519 41 -21
1137 -21 1178 0 50 26 51 34 51 517 0 488 0 492 -55 517 -40 18 -1141 16
-1174 -2z m1163 -58 c14 -20 16 -80 16 -462 0 -395 -2 -441 -17 -458 -15 -17
-46 -18 -571 -18 -503 0 -557 2 -574 17 -17 15 -18 43 -18 457 0 383 2 444 16
464 l15 22 559 0 559 0 15 -22z"/>
<path d="M247 1037 c-30 -29 -42 -93 -33 -171 9 -72 33 -96 95 -96 55 0 91 29
91 73 0 36 -36 37 -52 2 -9 -21 -18 -25 -42 -23 l-31 3 -3 78 c-3 85 7 110 42
105 12 -2 25 -13 31 -25 6 -14 18 -23 32 -23 19 0 23 6 23 28 0 39 -30 63 -84
69 -38 5 -48 2 -69 -20z"/>
<path d="M463 1036 c-25 -22 -28 -31 -31 -103 -5 -102 12 -148 60 -161 41 -11
88 1 111 29 13 16 17 40 17 105 0 46 -5 94 -11 107 -23 50 -100 62 -146 23z
m97 -52 c11 -28 13 -107 4 -141 -7 -24 -34 -35 -58 -21 -13 7 -16 25 -16 92 0
45 3 86 7 89 17 17 54 6 63 -19z"/>
<path d="M664 1047 c-2 -7 -3 -71 -2 -143 l3 -129 54 -3 c30 -2 65 -1 78 3 35
9 53 54 53 139 0 85 -12 119 -47 135 -34 16 -132 14 -139 -2z m121 -132 l0
-90 -32 -3 -33 -3 0 96 0 96 33 -3 32 -3 0 -90z"/>
<path d="M895 1047 c-3 -7 -4 -71 -3 -143 l3 -129 88 -3 c87 -3 88 -2 85 20
-3 21 -9 23 -60 26 l-58 3 0 34 c0 31 3 34 33 37 24 2 32 8 32 23 0 15 -8 21
-32 23 -30 3 -33 6 -33 37 l0 34 58 3 c49 3 57 6 57 23 0 18 -8 20 -83 23 -62
2 -84 -1 -87 -11z"/>
<path d="M124 919 c-3 -6 1 -18 9 -27 13 -12 19 -13 31 -3 8 7 12 19 9 27 -6
17 -39 19 -49 3z"/>
<path d="M1113 914 c-6 -17 14 -36 32 -31 6 2 11 13 13 25 3 17 -2 22 -18 22
-11 0 -23 -7 -27 -16z"/>
<path d="M125 710 c-4 -6 -1 -17 5 -25 11 -13 87 -15 514 -15 509 0 532 2 519
36 -4 12 -92 14 -518 14 -346 0 -516 -3 -520 -10z"/>
<path d="M125 608 c-3 -13 -4 -102 -3 -198 3 -173 3 -175 26 -178 l22 -3 0
200 c0 194 -1 201 -20 201 -12 0 -22 -9 -25 -22z"/>
<path d="M214 617 c-2 -7 -3 -96 -2 -197 3 -183 3 -185 26 -188 l22 -3 0 200
c0 195 -1 201 -20 201 -11 0 -23 -6 -26 -13z"/>
<path d="M304 617 c-2 -7 -3 -69 -2 -138 3 -120 4 -124 26 -127 22 -3 22 -3
22 137 0 135 -1 141 -20 141 -11 0 -23 -6 -26 -13z"/>
<path d="M394 617 c-2 -7 -3 -96 -2 -197 3 -183 3 -185 26 -188 l22 -3 0 200
c0 195 -1 201 -20 201 -11 0 -23 -6 -26 -13z"/>
<path d="M484 617 c-2 -7 -3 -96 -2 -197 3 -183 3 -185 26 -188 l22 -3 0 200
c0 195 -1 201 -20 201 -11 0 -23 -6 -26 -13z"/>
<path d="M574 617 c-2 -7 -3 -96 -2 -197 3 -183 3 -185 26 -188 l22 -3 0 200
c0 195 -1 201 -20 201 -11 0 -23 -6 -26 -13z"/>
<path d="M664 617 c-2 -7 -3 -69 -2 -138 3 -120 4 -124 26 -127 22 -3 22 -3
22 137 0 135 -1 141 -20 141 -11 0 -23 -6 -26 -13z"/>
<path d="M754 617 c-2 -7 -3 -96 -2 -197 3 -183 3 -185 26 -188 l22 -3 0 200
c0 195 -1 201 -20 201 -11 0 -23 -6 -26 -13z"/>
<path d="M844 617 c-2 -7 -3 -69 -2 -138 3 -120 4 -124 26 -127 22 -3 22 -3
22 137 0 135 -1 141 -20 141 -11 0 -23 -6 -26 -13z"/>
<path d="M937 623 c-4 -3 -7 -90 -7 -193 0 -187 5 -215 36 -203 11 4 14 44 14
204 0 186 -1 199 -18 199 -10 0 -22 -3 -25 -7z"/>
<path d="M1027 623 c-4 -3 -7 -90 -7 -193 0 -187 5 -215 36 -203 11 4 14 44
14 204 0 186 -1 199 -18 199 -10 0 -22 -3 -25 -7z"/>
<path d="M1117 623 c-4 -3 -7 -90 -7 -193 0 -187 5 -215 36 -203 11 4 14 44
14 204 0 186 -1 199 -18 199 -10 0 -22 -3 -25 -7z"/>
<path d="M670 305 c-15 -18 -5 -35 21 -35 12 0 19 7 19 19 0 24 -25 34 -40 16z"/>
<path d="M850 305 c-15 -18 -5 -35 21 -35 12 0 19 7 19 19 0 24 -25 34 -40 16z"/>
<path d="M307 296 c-7 -17 18 -40 33 -31 5 3 10 15 10 26 0 23 -35 27 -43 5z"/>
</g>
</svg>
